<svg width="154" height="24" viewBox="0 0 154 24" fill="none" xmlns="http://www.w3.org/2000/svg">
<path d="M28.8474 4.50471L25.1398 0.20644C25.0277 0.07703 24.8597 0 24.6784 0H4.30153C4.12356 0 3.95219 0.07703 3.84014 0.20644L0.132556 4.50471C-0.180529 4.86521 0.0963038 5.40443 0.593944 5.40443H28.386C28.8836 5.40443 29.1572 4.86521 28.8474 4.50471Z" fill="#F0F9F9"/>
<path d="M21.5679 9.20406C21.4657 9.02535 21.2647 8.91443 21.0472 8.91443H7.92729C7.70978 8.91443 7.50875 9.02535 7.40658 9.20406L4.93486 13.5023C4.72394 13.8721 5.00737 14.3158 5.45557 14.3158H23.5222C23.9704 14.3158 24.2538 13.869 24.0429 13.5023L21.5712 9.20406H21.5679Z" fill="#12DCE9"/>
<path d="M17.8343 18.185C17.7519 17.9724 17.5344 17.8307 17.2905 17.8307H11.6847C11.4408 17.8307 11.2233 17.9724 11.1409 18.185L9.44694 22.508C9.30852 22.8623 9.58865 23.2351 9.99072 23.2351H18.9878C19.3898 23.2351 19.67 22.8623 19.5316 22.508L17.8376 18.185H17.8343Z" fill="#2F85A5"/>
<path d="M48.0616 23.5268V4.65895H40.1033V0.163788H60.6333V4.65895H52.675V23.5268H48.0616Z" fill="#F0F9F9"/>
<path d="M65.1453 24C60.4136 24 57.1013 20.599 57.1013 15.8081C57.1013 11.0468 60.4136 7.67545 65.1453 7.67545C69.2265 7.67545 72.3612 10.8102 72.3612 15.7194V17.139H61.5669C61.7739 19.1204 62.8977 20.4216 65.1749 20.4216C66.7127 20.4216 67.7182 19.5935 67.8957 18.5289H72.2725C71.7994 21.8707 68.9011 24 65.1453 24ZM61.5965 14.4478H67.9548C67.8661 12.7325 66.831 11.4608 64.9679 11.4608C62.8977 11.4608 61.8627 12.6734 61.5965 14.4478Z" fill="#F0F9F9"/>
<path d="M75.0938 23.5268V8.14862H79.4707V10.3666C80.5057 8.71052 82.221 7.67545 84.6756 7.67545C87.1302 7.67545 88.7567 8.65137 89.6144 10.6032C91.1226 8.5035 93.2223 7.67545 95.5882 7.67545C99.4328 7.67545 101.325 10.13 101.325 14.8322V23.5268H96.8599V15.0688C96.8599 12.8212 95.7361 11.4608 93.8434 11.4608C91.7141 11.4608 90.3833 13.117 90.3833 15.6603V23.5268H85.9473V15.0688C85.9473 12.8212 84.8235 11.4608 82.9308 11.4608C80.8015 11.4608 79.4707 13.117 79.4707 15.6603V23.5268H75.0938Z" fill="#F0F9F9"/>
<path d="M111.875 24C107.143 24 103.831 20.599 103.831 15.8081C103.831 11.0468 107.143 7.67545 111.875 7.67545C115.956 7.67545 119.091 10.8102 119.091 15.7194V17.139H108.296C108.503 19.1204 109.627 20.4216 111.904 20.4216C113.442 20.4216 114.448 19.5935 114.625 18.5289H119.002C118.529 21.8707 115.631 24 111.875 24ZM108.326 14.4478H114.684C114.596 12.7325 113.561 11.4608 111.697 11.4608C109.627 11.4608 108.592 12.6734 108.326 14.4478Z" fill="#F0F9F9"/>
<path d="M121.823 23.5268V0.163788H126.2V23.5268H121.823Z" fill="#F0F9F9"/>
<path d="M131.873 6.25592C130.247 6.25592 129.064 5.07298 129.064 3.47601C129.064 1.87905 130.247 0.755256 131.873 0.755256C133.47 0.755256 134.653 1.87905 134.653 3.47601C134.653 5.07298 133.47 6.25592 131.873 6.25592ZM129.655 23.5268V8.14862H134.062V23.5268H129.655Z" fill="#F0F9F9"/>
<path d="M145.118 24C140.297 24 136.926 20.599 136.926 15.8081C136.926 11.0468 140.297 7.67545 145.118 7.67545C149.938 7.67545 153.339 11.0468 153.339 15.8081C153.339 20.599 149.938 24 145.118 24ZM145.118 20.2146C147.365 20.2146 148.932 18.381 148.932 15.8081C148.932 13.2648 147.365 11.4608 145.118 11.4608C142.9 11.4608 141.332 13.2648 141.332 15.8081C141.332 18.381 142.9 20.2146 145.118 20.2146Z" fill="#F0F9F9"/>
</svg>
